PathFileType	4	(X/Y/Z)	./resultDataOpenSim/trcMotMarkerGrf/sub06/qtm-01-06.trc
DataRate	CameraRate	NumFrames	NumMarkers	Units	OrigDataRate	OrigDataStartFrame	OrigNumFrames
250.000000	250.000000	6	24	m	250.000000	314	501
Frame#	Time	L.Toe.Tip			R.Toe.Tip			L.Ankle.Lat			R.Ankle.Lat			L.Ankle.Med			R.Ankle.Med			L.Heel			R.Heel			L.Knee.Lat			R.Knee.Lat			L.Knee.Med			R.Knee.Med			L.Thigh.Upper			R.Thigh.Upper			L.ASIS			R.ASIS			V.Sacral			L.Acromium			R.Acromium			C7			L.Elbow			R.Elbow			L.Wrist.Lat			R.Wrist.Lat
		X1	Y1	Z1	X2	Y2	Z2	X3	Y3	Z3	X4	Y4	Z4	X5	Y5	Z5	X6	Y6	Z6	X7	Y7	Z7	X8	Y8	Z8	X9	Y9	Z9	X10	Y10	Z10	X11	Y11	Z11	X12	Y12	Z12	X13	Y13	Z13	X14	Y14	Z14	X15	Y15	Z15	X16	Y16	Z16	X17	Y17	Z17	X18	Y18	Z18	X19	Y19	Z19	X20	Y20	Z20	X21	Y21	Z21	X22	Y22	Z22	X23	Y23	Z23	X24	Y24	Z24

314	1.252	0.20313223	0.070574852	-0.07182043	0.87010659	0.035390761	0.06475242	0.22583561	0.19899768	-0.11206824	0.73414541	0.059422875	0.099316665	0.24998451	0.20322393	-0.030320579	0.74710853	0.082427529	0.011294434	0.19164681	0.2613405	-0.063927677	0.67621091	0.038313459	0.044377451	0.55847485	0.38917616	-0.13722243	0.77431549	0.44826147	0.12784928	0.56655482	0.37102673	-0.019157662	0.72805708	0.43576689	0.0068313173	0.58231574	0.77904515	-0.13945477	0.64291173	0.7986683	0.20014788	0.66746587	0.82903306	-0.1076618	0.71557546	0.85087434	0.13037556	0.50513794	0.91122644	0.046021598	0.60763322	1.320857	-0.1534615	0.60841286	1.3030914	0.21038112	0.5306959	1.3511972	0.027511374	0.6188795	0.99555622	-0.21296268	0.49582278	1.0072981	0.26054197	0.82998696	0.86782845	-0.19123724	0.58126645	0.78690389	0.30854218
315	1.256	0.21431373	0.073247982	-0.073286017	0.87005261	0.035373395	0.064844486	0.23766371	0.20175887	-0.11280312	0.73416367	0.059241091	0.09942328	0.26196474	0.20541833	-0.030908133	0.74718865	0.082520261	0.011425174	0.20377789	0.26402613	-0.063975517	0.67617207	0.038377958	0.044444981	0.5708147	0.38983693	-0.13809387	0.77638992	0.44766223	0.12859012	0.57903834	0.3719847	-0.019748918	0.73040146	0.43556955	0.0074785839	0.58887004	0.7804114	-0.13848306	0.64903441	0.79980681	0.20068067	0.67415649	0.83070069	-0.1069418	0.72176047	0.85199771	0.13107832	0.51143121	0.91266767	0.046549509	0.61386011	1.3222685	-0.15321856	0.61520032	1.3043871	0.21060723	0.53721106	1.3526181	0.027890882	0.62393762	0.99682665	-0.21227866	0.50452367	1.0077544	0.26135091	0.83347252	0.86666833	-0.19152783	0.59214358	0.78823944	0.3091877
316	1.26	0.22627535	0.07570701	-0.074684187	0.87000395	0.035358522	0.064919492	0.24967932	0.20434218	-0.11344205	0.73418807	0.059124507	0.099474425	0.27413944	0.20753168	-0.031430585	0.74727462	0.082628969	0.011556734	0.21594357	0.26650806	-0.064081352	0.67613944	0.038441881	0.044495236	0.58322059	0.3906698	-0.13892819	0.77833536	0.44707458	0.12931168	0.59170551	0.37318615	-0.020358523	0.73248114	0.43543813	0.008155179	0.59542231	0.78183759	-0.13773236	0.65534044	0.80099193	0.20127937	0.68063439	0.83236796	-0.10640271	0.72789971	0.85312813	0.13174151	0.51774783	0.91412262	0.047117686	0.62001667	1.3237338	-0.15298244	0.62195705	1.3057412	0.21081969	0.54369458	1.3540693	0.028267243	0.62890721	0.99815983	-0.21169772	0.51306755	1.0082872	0.26211856	0.83685032	0.86556388	-0.19185316	0.60321475	0.78972829	0.30986552
317	1.264	0.23894884	0.077946107	-0.075945914	0.86995722	0.035346511	0.064976466	0.26188388	0.20672257	-0.11398111	0.73421802	0.05906528	0.099471057	0.28647017	0.20958046	-0.031891598	0.74736398	0.082757873	0.011692073	0.22811392	0.26875708	-0.064202288	0.6761188	0.038504846	0.044510316	0.59571661	0.39167212	-0.13974057	0.78017218	0.44651108	0.13003734	0.60447804	0.37457832	-0.020982807	0.73444124	0.43536478	0.0087982907	0.60204759	0.78332718	-0.13726606	0.66170524	0.80219861	0.20189957	0.6869126	0.83402566	-0.10604431	0.73397472	0.85426225	0.13236373	0.52409532	0.91558912	0.047736209	0.62610971	1.3252489	-0.15275005	0.62867955	1.3071512	0.21101068	0.5501494	1.3555416	0.028643411	0.63383438	0.99958457	-0.21110103	0.52148492	1.0089183	0.26286824	0.84011988	0.86453433	-0.1922125	0.61453025	0.79139969	0.3106026
318	1.268	0.25224166	0.079963436	-0.07702677	0.86990813	0.035337759	0.065016696	0.27429202	0.20889986	-0.11445021	0.73422437	0.059041932	0.099442066	0.29894425	0.21156321	-0.03232274	0.74744887	0.082902665	0.01182615	0.24024744	0.27075601	-0.064317489	0.67611221	0.038570124	0.044484659	0.60831521	0.39282852	-0.14054719	0.78191314	0.44600063	0.13073486	0.61715716	0.37612211	-0.021554896	0.73640197	0.4353334	0.0093581378	0.6087436	0.78487602	-0.13694235	0.66786775	0.80334311	0.20241831	0.6930609	0.83567672	-0.10581656	0.73997605	0.85539597	0.13295442	0.53042207	0.91707076	0.04842	0.63214487	1.3268093	-0.15251898	0.63536884	1.3086137	0.21117658	0.55657032	1.357027	0.029017162	0.63873425	1.0011047	-0.21045209	0.52990379	1.0096571	0.2636326	0.84329055	0.86359647	-0.19260463	0.62599875	0.79323314	0.31135475
319	1.272	0.26606757	0.081755367	-0.077951052	0.86985608	0.03533085	0.065045466	0.28691117	0.21087455	-0.11487494	0.73417745	0.059035762	0.09942384	0.31155404	0.21345695	-0.032746576	0.74752622	0.083051876	0.011952423	0.25233187	0.2725101	-0.064498725	0.67611114	0.038645733	0.044441281	0.62097759	0.3941196	-0.14134355	0.78358334	0.44558455	0.13134926	0.6296654	0.37778554	-0.022048912	0.73836194	0.43534103	0.0098434079	0.61544892	0.78648456	-0.13660568	0.67367076	0.80436354	0.20278268	0.69922092	0.83734193	-0.10562752	0.7459239	0.85652474	0.13354168	0.53663418	0.91857296	0.049177034	0.63812571	1.3284097	-0.15229056	0.64202944	1.3101243	0.21132037	0.56294507	1.3585213	0.029380729	0.64359451	1.0027085	-0.20977872	0.5384335	1.0104881	0.26442393	0.84636936	0.86274727	-0.19302651	0.63746187	0.79516982	0.31204407
